<svg width="21" height="17" viewBox="0 0 21 17" fill="none" xmlns="http://www.w3.org/2000/svg">
<path d="M0.916462 2.77049L19.5183 2.87157C19.8606 2.87343 20.1088 2.47907 20.0724 1.99138C20.0361 1.50363 19.7288 1.10631 19.3865 1.10445L0.784688 1.00337C0.4424 1.00151 0.194163 1.39588 0.230529 1.88356C0.266896 2.37124 0.574226 2.76863 0.916462 2.77049Z" fill="black" stroke="white" stroke-width="0.2"/>
<path d="M19.3868 7.66683L0.784993 7.56575C0.442705 7.56389 0.194468 7.95825 0.230834 8.44593C0.267201 8.93361 0.57453 9.331 0.916766 9.33286L19.5186 9.43394C19.8609 9.4358 20.1091 9.04144 20.0727 8.55376C20.0364 8.06608 19.7291 7.66869 19.3868 7.66683Z" fill="black" stroke="white" stroke-width="0.2"/>
<path d="M19.3865 14.1971L7.02455 14.1284C6.68334 14.1265 6.43642 14.5281 6.47333 15.0247C6.51024 15.5214 6.81712 15.926 7.15828 15.9279L19.5203 15.9965C19.8615 15.9984 20.1084 15.5968 20.0715 15.1002C20.0346 14.6035 19.7277 14.199 19.3865 14.1971Z" fill="black" stroke="white" stroke-width="0.2"/>
</svg>
