  <!--  <svg width="100%" height="100%" viewBox="0 0 25 23" fill="currentColor" xmlns="http://www.w3.org/2000/svg">
  <path fill="currentColor" stroke="black" stroke-width="0.3" d="M11.3428 22.1291C11.6538 22.44 12.0718 22.6134 12.5102 22.6134C12.9435 22.6134 13.3717 22.4349 13.6776 22.1291L22.8385 12.9682C24.2302 11.5764 24.9949 9.72591 25 7.76323C25 5.79545 24.2353 3.94492 22.8436 2.5532C21.4519 1.16147 19.6064 0.396792 17.6387 0.396792C15.7066 0.396792 13.8866 1.13599 12.5051 2.48183C11.1185 1.13089 9.29343 0.386597 7.35624 0.386597C5.39356 0.386597 3.54812 1.15128 2.1564 2.5379C0.764682 3.92962 0 5.78015 0 7.74794C0 9.71062 0.76978 11.5611 2.1615 12.9529L11.3428 22.1291ZM3.04343 3.42493C4.19555 2.27281 5.73002 1.63558 7.36134 1.63558C8.99266 1.63558 10.5322 2.27281 11.6894 3.43003L12.0667 3.80727C12.1839 3.92453 12.342 3.9908 12.5102 3.9908C12.6733 3.9908 12.8365 3.92453 12.9537 3.80727L13.3208 3.44023C14.478 2.28301 16.0124 1.64577 17.6489 1.64577C19.2802 1.64577 20.8146 2.28301 21.9668 3.43513C23.124 4.59235 23.7561 6.12681 23.7561 7.75813C23.7561 9.38945 23.1189 10.9239 21.9617 12.0811L12.7957 21.2471C12.6478 21.395 12.3777 21.395 12.2247 21.2471L3.04853 12.0709C1.89131 10.9137 1.25408 9.37926 1.25408 7.74794C1.25408 6.11661 1.89131 4.58215 3.04343 3.42493Z"/>
</svg>
width="25" height="23" viewBox="0 0 25 23" -->

<svg width="100%" height="100%" viewBox="0 0 25 23" xmlns="http://www.w3.org/2000/svg">
  <path  stroke="currentColor" stroke-width="1.5" d="M12.5 21.35l-1.45-1.32C5.4 15.36 2 12.28 2 8.5 2 5.42 4.42 3 7.5 3c1.74 0 3.41.81 4.5 2.09C13.09 3.81 14.76 3 16.5 3 19.58 3 22 5.42 22 8.5c0 3.78-3.4 6.86-9.05 11.54L12.5 21.35z"/>
</svg>