<svg width="18" height="18" viewBox="0 0 18 18" xmlns="http://www.w3.org/2000/svg">
  <path id="rect1" fill="black" d="M9 0.5C9.18332 0.5 9.34783 0.608258 9.4209 0.77832L11.4746 5.58496L11.5918 5.85938L11.8887 5.88672L17.085 6.3584C17.2662 6.3748 17.4207 6.49745 17.4775 6.67188C17.5345 6.84758 17.4812 7.03753 17.3438 7.1582L13.416 10.6025L13.1924 10.7988L13.2588 11.0898L14.416 16.1895C14.4518 16.3477 14.4029 16.5087 14.291 16.6182L14.2393 16.6621C14.1093 16.7562 13.9419 16.7746 13.7969 16.7148L13.7363 16.6846L9.25684 14.0059L9 13.8525L8.74316 14.0059L4.2627 16.6846C4.19034 16.7279 4.10987 16.749 4.0293 16.749C3.93501 16.749 3.84138 16.7209 3.76172 16.6631L3.76074 16.6621L3.70898 16.6182C3.59712 16.5087 3.54824 16.3477 3.58398 16.1895L3.58301 16.1885L4.74121 11.0898L4.80762 10.7988L4.58398 10.6025L0.65625 7.1582C0.518906 7.03775 0.465936 6.8475 0.522461 6.67285C0.579966 6.49797 0.734493 6.37515 0.916016 6.3584L0.915039 6.35742L6.1123 5.88672L6.40918 5.85938L6.52637 5.58496L8.58008 0.777344C8.65213 0.608419 8.81634 0.500009 9 0.5Z" stroke="black"/> -->
</svg>
