<svg width="18" height="18" viewBox="0 0 18 18" xmlns="http://www.w3.org/2000/svg">
  <!-- Левая половина -->
  <path
    fill="black"
    d="M9 0.5 L8.58008 0.777344 L6.52637 5.58496 L6.40918 5.85938 L6.1123 5.88672 L0.915039 6.35742 L0.916016 6.3584 L0.65625 7.1582 L4.58398 10.6025 L4.80762 10.7988 L4.74121 11.0898 L3.58301 16.1885 L3.58398 16.1895 L3.70898 16.6182 L3.76074 16.6621 L3.76172 16.6631 L4.0293 16.749 L4.10987 16.749 L4.19034 16.7279 L4.2627 16.6846 L8.74316 14.0059 L9 13.8525 L9 0.5 Z"
    stroke="black"
  />
  <!-- Правая половина (только правая часть звезды) -->
  <path
    fill="none"
    d="M9 0.5 L9.41992 0.777344 L11.47363 5.58496 L11.59082 5.85938 L11.8877 5.88672 L17.08496 6.35742 L17.08398 6.3584 L17.34375 7.1582 L13.41602 10.6025 L13.19238 10.7988 L13.25879 11.0898 L14.41699 16.1885 L14.41602 16.1895 L14.29102 16.6182 L14.23926 16.6621 L14.23828 16.6631 L13.9707 16.749 L13.89013 16.749 L13.80966 16.7279 L13.7373 16.6846 L9.25684 14.0059 L9 13.8525 L9 0.5 Z"
    stroke="black"
  />
</svg>