<svg width="21" height="20" viewBox="0 0 21 20" fill="none" xmlns="http://www.w3.org/2000/svg">
<path fill-rule="evenodd" clip-rule="evenodd" d="M15.6431 13.4554L19.8645 17.4602C20.053 17.6589 20.0437 17.9631 19.8434 18.1511L19.1047 18.8519C19.0056 18.9467 18.8707 19 18.73 19C18.5893 19 18.4544 18.9467 18.3553 18.8519L14.1339 14.8471C14.0172 14.7362 13.9112 14.6156 13.8173 14.4867L13.0258 13.4855C11.7162 14.4776 10.0898 15.0178 8.41388 15.0173C4.96034 15.0287 1.95934 12.7686 1.18757 9.5751C0.415791 6.38161 2.07921 3.10699 5.19304 1.68991C8.30686 0.272842 12.0401 1.09151 14.1825 3.66125C16.3249 6.23099 16.3047 9.86596 14.1339 12.4142L15.1893 13.105C15.3541 13.2051 15.5063 13.3226 15.6431 13.4554ZM3.13727 8.00874C3.13727 10.7735 5.49976 13.0148 8.41405 13.0148C9.81354 13.0148 11.1557 12.4874 12.1453 11.5485C13.1349 10.6097 13.6908 9.33643 13.6908 8.00874C13.6908 5.24399 11.3283 3.00271 8.41405 3.00271C5.49976 3.00271 3.13727 5.24399 3.13727 8.00874Z" fill="black"/>
<path d="M19.8645 17.4602L20.1365 17.2021L20.1297 17.195L20.1226 17.1882L19.8645 17.4602ZM15.6431 13.4554L15.3818 13.7245L15.385 13.7275L15.6431 13.4554ZM19.8434 18.1511L19.5868 17.8776L19.5853 17.879L19.8434 18.1511ZM19.1047 18.8519L18.8466 18.5799L18.8454 18.5809L19.1047 18.8519ZM18.3553 18.8519L18.6146 18.5809L18.6134 18.5799L18.3553 18.8519ZM14.1339 14.8471L13.8757 15.119L13.8758 15.1192L14.1339 14.8471ZM13.8173 14.4867L14.1205 14.2659L14.1161 14.2599L14.1115 14.2541L13.8173 14.4867ZM13.0258 13.4855L13.32 13.2529L13.0922 12.9647L12.7993 13.1865L13.0258 13.4855ZM8.41388 15.0173L8.41398 14.6423L8.41265 14.6423L8.41388 15.0173ZM1.18757 9.5751L0.82306 9.66319H0.82306L1.18757 9.5751ZM5.19304 1.68991L5.03771 1.3486L5.19304 1.68991ZM14.1825 3.66125L13.8944 3.90138H13.8944L14.1825 3.66125ZM14.1339 12.4142L13.8485 12.171L13.5725 12.4949L13.9285 12.7279L14.1339 12.4142ZM15.1893 13.105L14.9838 13.4189L14.9946 13.4255L15.1893 13.105ZM20.1226 17.1882L15.9012 13.1834L15.385 13.7275L19.6064 17.7323L20.1226 17.1882ZM20.1 18.4245C20.4512 18.095 20.4689 17.5524 20.1365 17.2021L19.5925 17.7184C19.6171 17.7444 19.6257 17.7727 19.625 17.7982C19.6242 17.8238 19.6138 17.8523 19.5868 17.8776L20.1 18.4245ZM19.3627 19.124L20.1015 18.4231L19.5853 17.879L18.8466 18.5799L19.3627 19.124ZM18.73 19.375C18.9645 19.375 19.193 19.2864 19.3639 19.1229L18.8454 18.5809C18.8182 18.607 18.7769 18.625 18.73 18.625V19.375ZM18.0961 19.1229C18.267 19.2864 18.4955 19.375 18.73 19.375V18.625C18.6831 18.625 18.6418 18.607 18.6146 18.5809L18.0961 19.1229ZM13.8758 15.1192L18.0973 19.124L18.6134 18.5799L14.392 14.575L13.8758 15.1192ZM13.5142 14.7074C13.6216 14.8549 13.7426 14.9927 13.8757 15.119L14.3921 14.5752C14.2917 14.4798 14.2008 14.3763 14.1205 14.2659L13.5142 14.7074ZM12.7316 13.718L13.5231 14.7192L14.1115 14.2541L13.32 13.2529L12.7316 13.718ZM8.41378 15.3923C10.1698 15.3928 11.876 14.8269 13.2522 13.7844L12.7993 13.1865C11.5563 14.1282 10.0099 14.6427 8.41398 14.6423L8.41378 15.3923ZM0.82306 9.66319C1.63854 13.0375 4.80065 15.4042 8.41512 15.3923L8.41265 14.6423C5.12003 14.6531 2.28015 12.4997 1.55207 9.48701L0.82306 9.66319ZM5.03771 1.3486C1.77019 2.83561 0.00652659 6.2845 0.82306 9.66319L1.55207 9.48701C0.825055 6.47872 2.38823 3.37836 5.34837 2.03123L5.03771 1.3486ZM14.4705 3.42112C12.2165 0.717584 8.30035 -0.136201 5.03771 1.3486L5.34837 2.03123C8.31337 0.681885 11.8636 1.46544 13.8944 3.90138L14.4705 3.42112ZM14.4194 12.6574C16.7085 9.97027 16.7299 6.13121 14.4705 3.42112L13.8944 3.90138C15.9198 6.33076 15.9009 9.76166 13.8485 12.171L14.4194 12.6574ZM15.3947 12.7912L14.3393 12.1004L13.9285 12.7279L14.9839 13.4188L15.3947 12.7912ZM15.9043 13.1864C15.7471 13.0338 15.5725 12.899 15.3839 12.7845L14.9946 13.4255C15.1357 13.5112 15.2655 13.6115 15.3818 13.7245L15.9043 13.1864ZM8.41405 12.6398C5.68801 12.6398 3.51227 10.548 3.51227 8.00874H2.76227C2.76227 10.999 5.31151 13.3898 8.41405 13.3898V12.6398ZM11.8872 11.2765C10.9693 12.1473 9.72027 12.6398 8.41405 12.6398V13.3898C9.90681 13.3898 11.3421 12.8274 12.4034 11.8206L11.8872 11.2765ZM13.3158 8.00874C13.3158 9.23041 12.8045 10.4063 11.8872 11.2765L12.4034 11.8206C13.4653 10.8132 14.0658 9.44245 14.0658 8.00874H13.3158ZM8.41405 3.37771C11.1401 3.37771 13.3158 5.46946 13.3158 8.00874H14.0658C14.0658 5.01851 11.5166 2.62771 8.41405 2.62771V3.37771ZM3.51227 8.00874C3.51227 5.46946 5.68801 3.37771 8.41405 3.37771V2.62771C5.31151 2.62771 2.76227 5.01851 2.76227 8.00874H3.51227Z" fill="white"/>
</svg>
